<svg width="50" height="50" viewBox="0 0 50 50" fill="none" xmlns="http://www.w3.org/2000/svg">
<path d="M49.4 20.3217C48.8667 19.6483 48.4367 18.8517 47.9817 18.0067C47.28 16.7083 46.5067 15.27 45.2283 14.19C45.6417 13.775 46.04 13.21 46.4183 12.4983C48.055 9.42167 49.075 3.98333 47.8667 0.560001C47.7217 0.153335 47.2967 -0.0783321 46.87 0.0316679C46.4517 0.140001 46.1867 0.551668 46.2583 0.978335C46.6383 3.19333 43.4067 5.69333 41.4767 7.18833C41.23 7.38 40.9983 7.55833 40.7883 7.725C40.1183 6.40167 38.8183 5.04 37.175 3.31833C36.3117 2.41333 35.3583 1.415 34.375 0.288335C34.1167 -0.00666543 33.69 -0.0833321 33.3467 0.106668C33.0033 0.295001 32.8383 0.696668 32.9483 1.07167C34.1767 5.27833 34.5083 7.28333 34.5683 9.83C32.3383 8.66 29.98 8.155 27.7933 8.44667C24.5383 8.88333 21.735 11.0083 19.7117 14.5517L1.39 42.8683C0.228335 44.5717 -0.064998 47.3717 1.49 48.9267C2.24 49.6783 3.28167 49.9967 4.35 49.9967C5.49167 49.9967 6.66 49.63 7.53334 49.0367L35.9733 30.62C40.4067 26.5883 42.825 23.815 42.905 20.705C42.9267 19.85 42.7567 18.9833 42.395 18.08C42.9533 18.065 43.3467 18.3867 44.0633 19.0267C44.97 19.835 46.21 20.9417 48.505 21.635C48.585 21.6583 48.6667 21.67 48.7467 21.67C49.0167 21.67 49.2767 21.5367 49.435 21.3083C49.6417 21.0067 49.6267 20.6067 49.4 20.3217ZM34.9617 29.3033L32.6283 30.8133C31.3817 27.7517 27.2617 26.67 25.4133 26.67C24.9533 26.67 24.58 27.0433 24.58 27.5033C24.58 27.9633 24.9533 28.3367 25.4133 28.3367C27.0733 28.3367 30.5233 29.3683 31.215 31.7283L20.3383 38.7667C19.8433 36.3767 18.0717 35.0033 15.4133 35.0033C14.9533 35.0033 14.58 35.3767 14.58 35.8367C14.58 36.2967 14.9533 36.67 15.4133 36.67C17.3817 36.67 18.475 37.5317 18.7567 39.3017C18.78 39.4467 18.8483 39.5683 18.9333 39.675L6.61167 47.6483C5.47334 48.4217 3.54834 48.6267 2.67 47.7483C1.78834 46.8667 1.995 44.94 2.78 43.79L5.25167 39.97C5.30667 39.9817 5.35667 40.0033 5.41334 40.0033C6.97 40.0033 7.70667 40.3183 7.95167 41.09C8.06667 41.445 8.39334 41.67 8.74667 41.67C8.83 41.67 8.91667 41.6583 9.00167 41.63C9.43834 41.49 9.68167 41.0217 9.54167 40.5833C8.99834 38.8833 7.4 38.4717 6.28667 38.37L13.8533 26.675C16.24 26.7017 17.5767 27.57 17.9283 29.3333C18.0067 29.7283 18.355 30.0033 18.7433 30.0033C18.7983 30.0033 18.8517 29.9983 18.9067 29.9867C19.3583 29.8967 19.6517 29.4583 19.5617 29.0067C19.1117 26.745 17.47 25.3733 14.8917 25.0683L19.7783 17.5167C21.2133 17.5883 23.9917 18.4783 24.6017 21.0283C24.6917 21.4117 25.0333 21.6683 25.4117 21.6683C25.475 21.6683 25.54 21.6617 25.605 21.6467C26.0517 21.5383 26.3283 21.09 26.2217 20.6417C25.525 17.7333 22.8767 16.3567 20.78 15.9683L21.1367 15.4167C22.9417 12.2567 25.2567 10.4683 28.015 10.0983C28.3533 10.0533 28.6983 10.03 29.0467 10.03C31.8117 10.03 34.8333 11.4367 37.3233 13.9233C40.08 16.7017 41.2867 18.7783 41.2383 20.66C41.1767 23.1617 38.85 25.755 34.9617 29.3033ZM45.1733 17.7817C44.1933 16.9067 43.26 16.0833 41.5867 16.5167C40.87 15.355 39.8633 14.12 38.5033 12.75C38.5033 12.75 38.5033 12.7483 38.5017 12.7483C37.7867 12.0333 37.0267 11.4117 36.2417 10.8617C36.2417 10.8533 36.2467 10.8467 36.2467 10.8383C36.2467 8.51167 36.115 6.74667 35.4383 3.91167C35.6183 4.10167 35.7967 4.28833 35.97 4.47C37.875 6.465 39.38 8.04167 39.5917 9.30833C39.645 9.62667 39.8767 9.88667 40.1883 9.97333C40.4967 10.0633 40.8317 9.96 41.0433 9.71667C41.27 9.455 41.865 8.99333 42.4967 8.505C43.8433 7.46333 45.5783 6.12 46.7267 4.56667C46.6517 7.08333 45.9283 9.87333 44.9467 11.7167C44.3617 12.8133 43.8367 13.2883 43.5383 13.365C43.2083 13.45 42.9633 13.7267 42.92 14.065C42.8783 14.4033 43.0433 14.7333 43.3417 14.8983C44.8717 15.7517 45.67 17.23 46.515 18.7967C46.535 18.8333 46.555 18.8717 46.5767 18.91C46.0117 18.53 45.5683 18.135 45.1733 17.7817Z" fill="black"/>
</svg>
