<svg width="50" height="50" viewBox="0 0 50 50" fill="none" xmlns="http://www.w3.org/2000/svg">
<g clip-path="url(#clip0)">
<path d="M32.5 44.1667H19.1667C13.5 44.1667 9.33333 39.8333 9.16667 33.6667L9 33.5C7.33333 31.8333 5 29.6667 5 25.8333C5 21.6667 9.33333 19.1667 12.5 19.1667C17.1667 19.1667 19.1667 22.1667 20.6667 24.5C21 25 21.3333 25.5 21.6667 25.8333C25 22.6667 32.1667 17.5 37.5 17.5C43.5 17.5 50 21.6667 50 28.3333C50 35 39.8333 44.1667 32.5 44.1667ZM12.5 20.8333C10.5 20.8333 6.66667 22.5 6.66667 25.8333C6.66667 28.8333 8.5 30.6667 10.1667 32.3333L10.6667 32.8333C10.8333 33 10.8333 33.1667 10.8333 33.5C10.8333 38.8333 14.3333 42.6667 19.1667 42.6667H32.5C38.8333 42.6667 48.3333 34.1667 48.3333 28.5C48.3333 22.8333 42.6667 19.3333 37.5 19.3333C32.8333 19.3333 25.8333 24.5 22.8333 27.3333C23.5 28.5 23.6667 29.8333 23 31.3333C22.3333 33.1667 20.6667 34.3333 19.1667 34.3333C18.6667 34.3333 18.3333 34 18.3333 33.5C18.3333 33 18.6667 32.6667 19.1667 32.6667C20 32.6667 21 31.8333 21.5 30.6667C21.6667 30.1667 22.1667 28.8333 21.1667 27.8333C20.5 27.1667 20 26.5 19.5 25.6667C17.8333 23.1667 16.1667 20.8333 12.5 20.8333Z" fill="black"/>
<path d="M30 21.6667C29.8333 21.6667 29.5 21.6667 29.3333 21.5C28.6667 20.8333 28.1667 20.1667 27.5 19.3333C25.8333 17 23.6667 14.3333 20.8333 14.3333C18.5 14.1667 15 16.8333 15 20C15 20.5 14.6667 20.8333 14.1667 20.8333C13.6667 20.8333 13.3333 20.5 13.3333 20C13.3333 15.6667 17.8333 12.5 20.8333 12.5C24.5 12.5 27 15.6667 28.8333 18.1667C29.5 19 30 19.6667 30.5 20.1667C30.8333 20.5 30.8333 21 30.5 21.3333C30.5 21.6667 30.1667 21.6667 30 21.6667Z" fill="black"/>
<path d="M29.1667 15.8333C29 15.8333 28.6667 15.8333 28.5 15.6667C28.1667 15.3333 28.1667 14.8333 28.5 14.5C30 13 29.3333 11.3333 28.3333 8.5C27.5 6 26.3333 3.16667 28.5 1C28.8333 0.666667 29.3333 0.666667 29.6667 1C30 1.33333 30 1.83333 29.6667 2.16667C28.3333 3.5 28.8333 5.16667 29.8333 7.83333C30.8333 10.3333 31.8333 13.3333 29.6667 15.5C29.6667 15.8333 29.3333 15.8333 29.1667 15.8333Z" fill="black"/>
<path d="M37.5 15.8333C37.3333 15.8333 37 15.8333 36.8333 15.6667C36.5 15.3333 36.5 14.8333 36.8333 14.5C38.3333 13 37.6667 11.3333 36.6667 8.5C35.8333 6 34.6667 3.16667 36.8333 1C37.1667 0.666667 37.6667 0.666667 38 1C38.3333 1.33333 38.3333 1.83333 38 2.16667C36.6667 3.5 37.1667 5.16667 38.1667 7.83333C39.1667 10.3333 40.1667 13.3333 38 15.5C38 15.8333 37.6667 15.8333 37.5 15.8333Z" fill="black"/>
<path d="M45.8333 15.8333C45.6667 15.8333 45.3333 15.8333 45.1667 15.6667C44.8333 15.3333 44.8333 14.8333 45.1667 14.5C46.6667 13 46 11.3333 45 8.5C44.1667 6 43 3.16667 45.1667 1C45.5 0.666667 46 0.666667 46.3333 1C46.6667 1.33333 46.6667 1.83333 46.3333 2.16667C45 3.5 45.5 5.16667 46.5 7.83333C47.5 10.3333 48.5 13.3333 46.3333 15.5C46.3333 15.8333 46 15.8333 45.8333 15.8333Z" fill="black"/>
<path d="M26.6667 49.1667C12 49.1667 4.00001 44.1667 3.66668 44C3.33334 43.8333 3.33334 43.5 3.33334 43.1667C3.50001 42.8333 3.83334 42.5 4.16668 42.5H49.1667C49.5 42.5 49.8333 42.6667 50 43.1667C50.1667 43.5 50 43.8333 49.6667 44.1667C49.3333 44.1667 41.3333 49.1667 26.6667 49.1667ZM7.83334 44.1667C11.3333 45.6667 17.8333 47.5 26.6667 47.5C35.5 47.5 42 45.6667 45.5 44.1667H7.83334Z" fill="black"/>
<path d="M15.8333 15.8333C15.6667 15.8333 15.3333 15.8333 15.1667 15.6667L13.5 14C13.1667 14 12.8333 14.1667 12.5 14.1667C11.1667 14.1667 10 13 10 11.6667C10 10.5 10.6667 9.66667 11.8333 9.33333C12.1667 8.33333 13.1667 7.5 14.1667 7.5C15.5 7.5 16.6667 8.66667 16.6667 10C16.6667 10.3333 16.5 10.6667 16.5 11L18.1667 12.6667C18.5 13 18.5 13.5 18.1667 13.8333C17.8333 14.1667 17.3333 14.1667 17 13.8333L14.8333 11.8333C14.5 11.5 14.5 11 14.8333 10.6667C14.8333 10.5 15 10.1667 15 10C15 9.5 14.6667 9.16667 14.1667 9.16667C13.6667 9.16667 13.3333 9.5 13.3333 10C13.3333 10.5 13 10.8333 12.5 10.8333C12 10.8333 11.6667 11.1667 11.6667 11.6667C11.6667 12.3333 12.6667 12.6667 13.1667 12.3333C13.3333 12.1667 13.5 12.1667 13.8333 12.1667C14 12.1667 14.3333 12.3333 14.5 12.3333L16.6667 14.5C17 14.8333 17 15.3333 16.6667 15.6667C16.3333 15.8333 16 15.8333 15.8333 15.8333Z" fill="black"/>
<path d="M5.83333 24.1667C5.66667 24.1667 5.33333 24.1667 5.16667 24L3.5 22.3333C3.16667 22.5 2.83333 22.5 2.5 22.5C1.16667 22.5 0 21.3333 0 20C0 18.8333 0.666667 18 1.83333 17.6667C2.16667 16.6667 3.16667 15.8333 4.16667 15.8333C5.5 15.8333 6.66667 17 6.66667 18.3333C6.66667 18.6667 6.5 19 6.5 19.3333L8.16667 21C8.5 21.3333 8.5 21.8333 8.16667 22.1667C7.83333 22.5 7.33333 22.5 7 22.1667L4.83333 20C4.5 19.6667 4.5 19.1667 4.83333 18.8333C4.83333 18.8333 5 18.5 5 18.3333C5 17.8333 4.66667 17.5 4.16667 17.5C3.66667 17.5 3.33333 17.8333 3.33333 18.3333C3.33333 18.8333 3 19.1667 2.5 19.1667C2 19.1667 1.66667 19.5 1.66667 20C1.66667 20.6667 2.66667 21 3.16667 20.6667C3.33333 20.5 3.5 20.5 3.83333 20.5C4 20.5 4.33333 20.6667 4.5 20.6667L6.66667 22.8333C7 23.1667 7 23.6667 6.66667 24C6.33333 24.1667 6 24.1667 5.83333 24.1667Z" fill="black"/>
<path d="M35.8333 39.1667C35.6667 39.1667 35.5 39.1667 35.3333 39C35 38.8333 35 38.3333 35 38L36.5 34C36.6667 33.6667 36.5 33.1667 36.3333 33C36.1667 32.8333 35.6667 32.5 35.3333 32.5H32.5C32 32.5 31.6667 32.1667 31.6667 31.6667C31.6667 31.1667 32 30.8333 32.5 30.8333H35.3333C36.3333 30.8333 37.1667 31.3333 37.6667 32C38.1667 32.6667 38.3333 33.6667 38 34.6667L37.5 35.8333L40.1667 33.8333C41 33.3333 41.5 32.3333 41.5 31.3333C41.5 30.3333 41.1667 29.5 40.5 28.6667L36.8333 25.3333C36.5 25 36.5 24.5 36.8333 24.1667C37.1667 23.8333 37.6667 23.8333 38 24.1667L41.8333 27.5C42.8333 28.5 43.5 30 43.3333 31.5C43.1667 33 42.5 34.3333 41.3333 35.1667L36.3333 38.8333C36.1667 39.1667 36 39.1667 35.8333 39.1667Z" fill="black"/>
</g>
<defs>
<clipPath id="clip0">
<rect width="50" height="50" fill="white"/>
</clipPath>
</defs>
</svg>
