<svg width="50" height="50" viewBox="0 0 50 50" fill="none" xmlns="http://www.w3.org/2000/svg">
<path d="M45 48.3333H5.83334C3.16668 48.3333 0.833344 46 0.833344 43.3333V20.1667C0.833344 18.5 1.66668 17 2.83334 16L7.66668 11.8333C8.16668 11.5 8.66668 11.6667 9.00001 12C9.33334 12.3333 9.33334 12.8333 8.83334 13.1667L3.83334 17.3333C3.00001 18 2.50001 19 2.50001 20.1667V43.3333C2.50001 45.1667 4.00001 46.6667 5.83334 46.6667H45C46.8333 46.6667 47.5 45 47.5 43.3333V20C47.5 19 45.8333 17.8333 45.3333 17.3333L41.1667 14C40.8333 13.6667 40.8333 13.1667 41 12.8333C41.3333 12.5 41.8333 12.5 42.1667 12.6667L46.3333 16C47.6667 17 49.1667 18.3333 49.1667 20V43.3333C49.1667 46.3333 47.5 48.3333 45 48.3333Z" fill="black"/>
<path d="M33.3333 7.66666C33.1667 7.66666 33 7.66666 32.8334 7.5L29.5 5C26.3333 2.66666 22.8333 2.66666 19.6667 5L16.3333 7.5C16 7.83333 15.5 7.66666 15.1667 7.33333C14.8333 7 15 6.5 15.3333 6.16666L18.6667 3.66666C22.3333 0.999998 26.8333 0.999998 30.5 3.66666L33.8333 6.16666C34.1667 6.5 34.3333 7 34 7.33333C33.8333 7.5 33.6667 7.66666 33.3333 7.66666Z" fill="black"/>
<path d="M25.5 33.3333C23.5 33.3333 21.3333 32.6667 19.6667 31.5L6.33335 22.3333C6.00001 22 5.83335 21.5 6.16668 21.1667C6.50001 20.8333 7.00001 20.6667 7.33335 21L20.6667 30.1667C23.5 32.1667 27.6667 32.1667 30.5 30.1667L43.8333 21.8333C44.1667 21.6667 44.6667 21.6667 45 22.1667C45.1667 22.5 45.1667 23 44.6667 23.3333L31.3333 31.6667C29.5 32.8333 27.5 33.3333 25.5 33.3333Z" fill="black"/>
<path d="M41.6667 24.3333C41.1667 24.3333 40.8333 24 40.8333 23.5V8.33333H9.16667V22.5C9.16667 23 8.83333 23.3333 8.33333 23.3333C7.83333 23.3333 7.5 23 7.5 22.5V7.5C7.5 7 7.83333 6.66666 8.33333 6.66666H41.6667C42.1667 6.66666 42.5 7 42.5 7.5V23.5C42.5 24 42.1667 24.3333 41.6667 24.3333Z" fill="black"/>
<path d="M35.8334 28.3333H15C14.5 28.3333 14.1667 28 14.1667 27.5C14.1667 27 14.5 26.6667 15 26.6667H35.8334C36.3334 26.6667 36.6667 27 36.6667 27.5C36.6667 28 36.3334 28.3333 35.8334 28.3333Z" fill="black"/>
<path d="M36.6667 11.6667H33.3333C32.8333 11.6667 32.5 11.3333 32.5 10.8333C32.5 10.3333 32.8333 10 33.3333 10H36.6667C37.1667 10 37.5 10.3333 37.5 10.8333C37.5 11.3333 37.1667 11.6667 36.6667 11.6667Z" fill="black"/>
<path d="M16.6667 25H13.3333C12.8333 25 12.5 24.6667 12.5 24.1667C12.5 23.6667 12.8333 23.3333 13.3333 23.3333H16.6667C17.1667 23.3333 17.5 23.6667 17.5 24.1667C17.5 24.6667 17.1667 25 16.6667 25Z" fill="black"/>
<path d="M25 23.3333C22.8334 23.3333 21 22.1667 20.8334 20.6667C20.8334 20.1667 21.1667 19.8333 21.5 19.8333C22 19.8333 22.3334 20.1667 22.3334 20.5C22.3334 21 23.5 21.6667 24.8334 21.6667C26.1667 21.6667 27.3334 21 27.3334 20.3333C27.3334 20 26.8334 19.3333 24.8334 19.1667H24.6667C23.5 19 20.6667 18.5 20.6667 16.3333C20.6667 14.6667 22.5 13.3333 24.8334 13.3333C27 13.3333 28.8334 14.5 29 16C29 16.5 28.6667 16.8333 28.3334 16.8333C27.8334 16.8333 27.5 16.5 27.5 16.1667C27.5 15.6667 26.3334 15 25 15C23.6667 15 22.5 15.6667 22.5 16.3333C22.5 16.6667 23 17.3333 25 17.5H25.1667C26.3334 17.6667 29.1667 18.1667 29.1667 20.3333C29.1667 22 27.3334 23.3333 25 23.3333Z" fill="black"/>
<path d="M25 25C24.5 25 24.1667 24.6667 24.1667 24.1667V12.5C24.1667 12 24.5 11.6667 25 11.6667C25.5 11.6667 25.8334 12 25.8334 12.5V24.1667C25.8334 24.6667 25.5 25 25 25Z" fill="black"/>
</svg>
