<svg width="50" height="50" viewBox="0 0 50 50" fill="none" xmlns="http://www.w3.org/2000/svg">
<g clip-path="url(#clip0)">
<path d="M49.9467 27.2067L44.9467 13.8733C44.825 13.5483 44.5133 13.3333 44.1667 13.3333H33.3333V9.935C33.3333 7.215 31.0667 5 28.2783 5H5.055C2.26667 5 0 7.21333 0 9.935V38.75C0 40.3583 1.30833 41.6667 2.91667 41.6667H6.97333C7.665 43.6017 9.49667 45 11.6667 45C13.8367 45 15.6683 43.6017 16.36 41.6667H35.3083C35.9983 43.6017 37.8317 45 40.0017 45C42.1717 45 44.0033 43.6017 44.695 41.6667H47.085C48.6933 41.6667 50.0017 40.3583 50.0017 38.75V27.5C50 27.4 49.9817 27.3 49.9467 27.2067ZM1.66667 9.935C1.66667 8.13333 3.18667 6.66667 5.055 6.66667H28.2783C30.1467 6.66667 31.6667 8.13167 31.6667 9.935V14.0367C31.6667 14.06 31.6783 14.0783 31.68 14.1017C31.6783 14.125 31.6667 14.1433 31.6667 14.1667V31.6667H1.66667V9.935ZM11.6667 43.3333C9.82833 43.3333 8.33333 41.8383 8.33333 40C8.33333 38.1617 9.82833 36.6667 11.6667 36.6667C13.505 36.6667 15 38.1617 15 40C15 41.8383 13.505 43.3333 11.6667 43.3333ZM40 43.3333C38.1617 43.3333 36.6667 41.8383 36.6667 40C36.6667 38.1617 38.1617 36.6667 40 36.6667C41.8383 36.6667 43.3333 38.1617 43.3333 40C43.3333 41.8383 41.8383 43.3333 40 43.3333ZM48.3333 38.75C48.3333 39.44 47.7717 40 47.0833 40H45C45 37.2433 42.7567 35 40 35C37.2433 35 35 37.2433 35 40H16.6667C16.6667 37.2433 14.4233 35 11.6667 35C8.91 35 6.66667 37.2433 6.66667 40H2.91667C2.22833 40 1.66667 39.44 1.66667 38.75V33.3333H32.5C32.96 33.3333 33.3333 32.96 33.3333 32.5V15H43.5883L48.3333 27.6517V38.75ZM36.6667 17.5C36.6667 17.04 36.2933 16.6667 35.8333 16.6667C35.3733 16.6667 35 17.04 35 17.5V25.8333C35 26.2933 35.3733 26.6667 35.8333 26.6667H44.1667C44.6267 26.6667 45 26.2933 45 25.8333C45 25.3733 44.6267 25 44.1667 25H36.6667V17.5Z" fill="black"/>
</g>
<defs>
<clipPath id="clip0">
<rect width="50" height="50" fill="white"/>
</clipPath>
</defs>
</svg>
